<?xml version="1.0" encoding="UTF-8" standalone="no"?>
<!DOCTYPE svg PUBLIC "-//W3C//DTD SVG 1.1//EN"
 "http://www.w3.org/Graphics/SVG/1.1/DTD/svg11.dtd">
<!-- Generated by graphviz version 2.38.0 (20140413.2041)
 -->
<!-- Title: %3 Pages: 1 -->
<svg width="241pt" height="208pt"
 viewBox="0.00 0.00 240.97 207.74" xmlns="http://www.w3.org/2000/svg" xmlns:xlink="http://www.w3.org/1999/xlink">
<g id="graph0" class="graph" transform="scale(1 1) rotate(0) translate(4 203.74)">
<title>%3</title>
<polygon fill="none" stroke="none" points="-4,4 -4,-203.74 236.966,-203.74 236.966,4 -4,4"/>
<!-- lec1 -->
<g id="node1" class="node"><title>lec1</title>
<polygon fill="greenyellow" stroke="black" points="104.966,-199.74 2.96551,-199.74 2.96551,-161.74 104.966,-161.74 104.966,-199.74"/>
<text text-anchor="middle" x="53.9655" y="-184.54" font-family="MS Gothic" font-size="14.00">フレームワーク</text>
<text text-anchor="middle" x="53.9655" y="-169.54" font-family="MS Gothic" font-size="14.00">開発特論</text>
</g>
<!-- lec3 -->
<g id="node3" class="node"><title>lec3</title>
<polygon fill="greenyellow" stroke="black" points="182.966,-125.74 48.9655,-125.74 48.9655,-89.7401 182.966,-89.7401 182.966,-125.74"/>
<text text-anchor="middle" x="115.966" y="-104.04" font-family="MS Gothic" font-size="14.00">アジャイル開発特論</text>
</g>
<!-- lec1&#45;&gt;lec3 -->
<g id="edge1" class="edge"><title>lec1&#45;&gt;lec3</title>
<path fill="none" stroke="black" d="M69.9321,-161.456C77.3691,-152.939 86.3294,-142.678 94.3605,-133.481"/>
<polygon fill="black" stroke="black" points="97.1762,-135.578 101.117,-125.744 91.9035,-130.974 97.1762,-135.578"/>
</g>
<!-- lec2 -->
<g id="node2" class="node"><title>lec2</title>
<polygon fill="greenyellow" stroke="black" points="232.966,-199.74 122.966,-199.74 122.966,-161.74 232.966,-161.74 232.966,-199.74"/>
<text text-anchor="middle" x="177.966" y="-184.54" font-family="MS Gothic" font-size="14.00">コラボレイティブ</text>
<text text-anchor="middle" x="177.966" y="-169.54" font-family="MS Gothic" font-size="14.00">開発特論</text>
</g>
<!-- lec2&#45;&gt;lec3 -->
<g id="edge2" class="edge"><title>lec2&#45;&gt;lec3</title>
<path fill="none" stroke="black" d="M161.999,-161.456C154.562,-152.939 145.602,-142.678 137.57,-133.481"/>
<polygon fill="black" stroke="black" points="140.027,-130.974 130.814,-125.744 134.755,-135.578 140.027,-130.974"/>
</g>
<!-- lec4 -->
<g id="node4" class="node"><title>lec4</title>
<ellipse fill="greenyellow" stroke="black" cx="115.966" cy="-26.8701" rx="115.931" ry="26.7407"/>
<text text-anchor="middle" x="115.966" y="-30.6701" font-family="MS Gothic" font-size="14.00">ビジネスアプリケーション</text>
<text text-anchor="middle" x="115.966" y="-15.6701" font-family="MS Gothic" font-size="14.00">特別演習（PBL）</text>
</g>
<!-- lec3&#45;&gt;lec4 -->
<g id="edge3" class="edge"><title>lec3&#45;&gt;lec4</title>
<path fill="none" stroke="black" d="M115.966,-89.6265C115.966,-82.137 115.966,-73.0458 115.966,-64.168"/>
<polygon fill="black" stroke="black" points="119.466,-63.9529 115.966,-53.953 112.466,-63.953 119.466,-63.9529"/>
</g>
</g>
</svg>
